<?xml version="1.0" encoding="UTF-8"?>
<svg id="Layer_1" data-name="Layer 1" xmlns="http://www.w3.org/2000/svg" version="1.1" viewBox="0 0 1104.2 268">
  <defs>
    <style>
      .cls-1 {
        fill: #192f43;
      }

      .cls-1, .cls-2, .cls-3 {
        stroke-width: 0px;
      }

      .cls-2 {
        fill: #62bdb7;
      }

      .cls-3 {
        fill: #fff;
      }
    </style>
  </defs>
  <g>
    <path class="cls-2" d="M58.7,174.7l-26.3-86.9v86.9H11.4v-106.6h38.9l18.7,63.8,19.7-63.8h39v106.6h-25.2v-86.9l-26.8,86.9h-17.1,0Z"/>
    <path class="cls-2" d="M218.8,139.2h-50.8c0,1.4,0,2.6,0,3.7,0,5.6,1.5,9.9,4.5,12.7,3,2.9,6.6,4.3,10.7,4.3,7.8,0,12.4-4.1,14-12.4l21.1,1.6c-5.9,18.2-17.8,27.3-35.9,27.3s-14.5-1.6-20-4.7c-5.5-3.1-10-7.8-13.6-13.8-3.6-6-5.4-13.3-5.4-21.7,0-12.6,3.6-22.7,10.7-30.4s16.4-11.6,27.6-11.6,18.9,3.6,26.1,10.7c7.3,7.2,10.9,18.6,10.9,34.3h0ZM167.9,125.7h28.1c-.7-10.8-5.2-16.2-13.4-16.2s-13.6,5.4-14.7,16.2Z"/>
    <path class="cls-2" d="M300.6,68.1v106.6h-21.5v-12.3c-5.3,9.3-12.6,14-21.8,14s-15.6-3.6-20.6-10.7-7.6-17-7.6-29.6,2.5-23.4,7.6-30.8,12.3-11.1,21.9-11.1,14.9,3.3,19.4,9.9v-36h22.6,0ZM278,128.9c0-12.4-3.8-18.6-11.3-18.6s-13.5,8.8-13.5,26.2,4.2,23.4,12.6,23.4,6.1-1.4,8.5-4.2,3.6-6.8,3.6-12v-14.8Z"/>
    <path class="cls-2" d="M343.1,65.9v23.3h-23.3v-23.3h23.3ZM343.1,95.8v78.9h-23.3v-78.9h23.3Z"/>
  </g>
  <g>
    <circle class="cls-2" cx="452.8" cy="81.4" r="81.4"/>
    <polygon class="cls-2" points="383.4 124.8 449.2 107.8 521.2 125.8 453.2 245.6 383.4 124.8"/>
  </g>
  <circle class="cls-3" cx="452.9" cy="81.3" r="59"/>
  <g>
    <rect class="cls-2" x="439.3" y="47.5" width="26.5" height="67.7"/>
    <rect class="cls-2" x="419" y="68.4" width="67.7" height="26.5"/>
  </g>
  <g>
    <path class="cls-1" d="M586.3,146.5h42.4v21.1h-67.7V60.9h25.3v85.6Z"/>
    <path class="cls-1" d="M673.1,87c12,0,21.4,3.9,28.1,11.8,6.7,7.9,10.1,17.7,10.1,29.5s-3.5,21.4-10.5,29.2c-7,7.8-16.3,11.7-27.9,11.7s-20.2-3.9-27-11.6c-6.7-7.7-10.1-17.6-10.1-29.7s1.5-15.5,4.6-21.4c3-5.9,7.2-10.6,12.5-14.2s12-5.4,20.1-5.4h0ZM673.7,102.3c-4.4,0-7.7,1.7-10,5.1s-3.3,10.2-3.3,20.3,1.1,16,3.2,20.1,5.5,6.1,10,6.1,7.1-1.7,9.6-5.2c2.4-3.5,3.7-10.1,3.7-19.8s-1.1-17.4-3.2-21.1c-2.2-3.7-5.4-5.6-9.8-5.6h0Z"/>
    <path class="cls-1" d="M795.4,138c-.9,9.3-4.6,16.9-11,22.6s-14.9,8.6-25.1,8.6-20.2-3.7-27.2-11.1c-7-7.4-10.5-17.2-10.5-29.6s3.6-22.4,10.7-30,16.7-11.5,28.7-11.5,17.6,2.9,24,8.7,9.8,13,10.5,21.7l-21.7,1.2c-.7-9.5-4.8-14.2-12.3-14.2s-13.8,7.6-13.8,22.7,1.3,16.4,3.9,19.1c2.6,2.7,5.7,4.1,9.4,4.1,7.2,0,11.5-4.6,12.9-13.7l21.7,1.3h0Z"/>
    <path class="cls-1" d="M876.7,167.6h-22.6c-.7-3.1-1.1-7.2-1.1-12.3-4,5.6-7.9,9.4-11.8,11.2s-8.4,2.8-13.4,2.8c-7.4,0-13.3-2-17.9-6-4.5-4-6.8-9.4-6.8-16.2s1.3-9.5,4-13.7c2.7-4.2,6.9-7.4,12.8-9.8,5.9-2.4,16.6-4.1,32.1-5.3v-4.5c0-7.7-3.8-11.5-11.5-11.5s-12.7,3.8-13.6,11.5l-21.5-2c1.4-9,5.7-15.3,12.7-19.1,7.1-3.8,15.1-5.6,24.1-5.6s10.4.6,15.2,1.9c4.7,1.2,8.4,3.1,11.1,5.6s4.5,5.1,5.4,7.9,1.4,7.6,1.4,14.6v35.8c0,6.9.5,11.8,1.4,14.8h0ZM852,129.8c-16.2,1.6-24.4,6.5-24.4,14.8s.9,5.1,2.6,7.1,4.2,3,7.3,3,7.5-1.7,10.3-5.1c2.8-3.4,4.2-7.6,4.2-12.6v-7.2Z"/>
    <path class="cls-1" d="M920.8,106.8v33.4c0,4.2.6,6.9,1.9,8.4s4.2,2.1,8.8,2.1,4.6-.1,7.4-.3v17.3c-6.8,1.1-11.6,1.7-14.6,1.7-9.7,0-16.6-1.9-20.6-5.6-4.1-3.7-6.1-10.5-6.1-20.2v-36.7h-12.5v-18.1h13.8l1.9-23.3,20.1-1.6v24.8h17v18.1h-17Z"/>
    <path class="cls-1" d="M982.9,87c12,0,21.4,3.9,28.1,11.8,6.7,7.9,10.1,17.7,10.1,29.5s-3.5,21.4-10.5,29.2c-7,7.8-16.3,11.7-27.9,11.7s-20.2-3.9-27-11.6c-6.7-7.7-10.1-17.6-10.1-29.7s1.5-15.5,4.6-21.4c3-5.9,7.2-10.6,12.5-14.2s12-5.4,20.1-5.4h0ZM983.5,102.3c-4.4,0-7.7,1.7-10,5.1s-3.3,10.2-3.3,20.3,1.1,16,3.2,20.1,5.5,6.1,10,6.1,7.1-1.7,9.6-5.2c2.4-3.5,3.7-10.1,3.7-19.8s-1.1-17.4-3.2-21.1c-2.2-3.7-5.4-5.6-9.8-5.6h0Z"/>
    <path class="cls-1" d="M1058.4,167.6h-22.6v-78.9h21.3v14.7c3.3-10.9,9-16.4,17-16.4s2.6,0,4.2.2v23c-4.7,0-8.4.7-11.1,2.2s-4.8,4.1-6.4,7.8c-1.7,3.8-2.5,8.9-2.5,15.3v32.1h0Z"/>
  </g>
  <g>
    <path class="cls-2" d="M434.2,212.7c6.1-.6,12.6-.9,19.3-.9s12.3.3,18,.7l5.4-9.2c-7.6-.9-15.7-1.3-24-1.3s-16.4.5-24,1.3l5.4,9.3Z"/>
    <path class="cls-2" d="M487.5,204.8l-5.2,8.9c23.4,3.4,39.6,10.7,39.6,19.2s-30.7,21.2-68.5,21.2-68.5-9.5-68.5-21.2,15.6-15.6,38.3-19l-5.4-9.1c-28.3,4.9-48,15.7-48,28.1s37.1,31,82.9,31,82.9-13.9,82.9-31-19.8-23.3-48.3-28.2Z"/>
  </g>
</svg>